<mxfile host="65bd71144e">
    <diagram id="1KZiC_kg6W6hYkoVT9V6" name="Page-1">
        <mxGraphModel dx="1714" dy="886" grid="1" gridSize="10" guides="1" tooltips="1" connect="1" arrows="1" fold="1" page="1" pageScale="1" pageWidth="827" pageHeight="1169" math="0" shadow="0">
            <root>
                <mxCell id="0"/>
                <mxCell id="1" parent="0"/>
                <mxCell id="108" style="edgeStyle=orthogonalEdgeStyle;rounded=0;html=1;entryX=0.5;entryY=0;entryDx=0;entryDy=0;" edge="1" parent="1" source="109" target="110">
                    <mxGeometry relative="1" as="geometry"/>
                </mxCell>
                <mxCell id="109" value="input number of month" style="shape=parallelogram;perimeter=parallelogramPerimeter;whiteSpace=wrap;html=1;fixedSize=1;" vertex="1" parent="1">
                    <mxGeometry x="90" y="210" width="160" height="70" as="geometry"/>
                </mxCell>
                <mxCell id="110" value="number months" style="rhombus;whiteSpace=wrap;html=1;" vertex="1" parent="1">
                    <mxGeometry x="130" y="320" width="110" height="120" as="geometry"/>
                </mxCell>
                <mxCell id="112" value="February" style="shape=parallelogram;perimeter=parallelogramPerimeter;whiteSpace=wrap;html=1;fixedSize=1;" vertex="1" parent="1">
                    <mxGeometry x="409" y="520" width="120" height="60" as="geometry"/>
                </mxCell>
                <mxCell id="114" value="May" style="shape=parallelogram;perimeter=parallelogramPerimeter;whiteSpace=wrap;html=1;fixedSize=1;" vertex="1" parent="1">
                    <mxGeometry x="375" y="780" width="120" height="60" as="geometry"/>
                </mxCell>
                <mxCell id="116" value="April" style="shape=parallelogram;perimeter=parallelogramPerimeter;whiteSpace=wrap;html=1;fixedSize=1;" vertex="1" parent="1">
                    <mxGeometry x="385" y="700" width="120" height="60" as="geometry"/>
                </mxCell>
                <mxCell id="118" value="March" style="shape=parallelogram;perimeter=parallelogramPerimeter;whiteSpace=wrap;html=1;fixedSize=1;" vertex="1" parent="1">
                    <mxGeometry x="395" y="610" width="120" height="60" as="geometry"/>
                </mxCell>
                <mxCell id="119" value="january" style="shape=parallelogram;perimeter=parallelogramPerimeter;whiteSpace=wrap;html=1;fixedSize=1;" vertex="1" parent="1">
                    <mxGeometry x="430" y="450" width="120" height="60" as="geometry"/>
                </mxCell>
                <mxCell id="120" value="" style="ellipse;whiteSpace=wrap;html=1;" vertex="1" parent="1">
                    <mxGeometry x="165" y="460" width="20" as="geometry"/>
                </mxCell>
                <mxCell id="121" style="edgeStyle=orthogonalEdgeStyle;rounded=0;html=1;entryX=0;entryY=0.5;entryDx=0;entryDy=0;" edge="1" parent="1" source="122" target="119">
                    <mxGeometry relative="1" as="geometry">
                        <Array as="points">
                            <mxPoint x="435" y="480"/>
                        </Array>
                    </mxGeometry>
                </mxCell>
                <mxCell id="122" value="" style="ellipse;whiteSpace=wrap;html=1;" vertex="1" parent="1">
                    <mxGeometry x="175" y="470" height="10" as="geometry"/>
                </mxCell>
                <mxCell id="123" value="1" style="text;html=1;align=center;verticalAlign=middle;resizable=0;points=[];autosize=1;strokeColor=none;fillColor=none;" vertex="1" parent="1">
                    <mxGeometry x="195" y="450" width="20" height="20" as="geometry"/>
                </mxCell>
                <mxCell id="124" style="edgeStyle=orthogonalEdgeStyle;rounded=0;html=1;" edge="1" parent="1" source="125" target="112">
                    <mxGeometry relative="1" as="geometry">
                        <Array as="points">
                            <mxPoint x="185" y="550"/>
                        </Array>
                    </mxGeometry>
                </mxCell>
                <mxCell id="125" value="" style="ellipse;whiteSpace=wrap;html=1;" vertex="1" parent="1">
                    <mxGeometry x="185" y="570" height="20" as="geometry"/>
                </mxCell>
                <mxCell id="126" value="" style="ellipse;whiteSpace=wrap;html=1;aspect=fixed;" vertex="1" parent="1">
                    <mxGeometry x="185" y="695" as="geometry"/>
                </mxCell>
                <mxCell id="127" value="3" style="text;html=1;align=center;verticalAlign=middle;resizable=0;points=[];autosize=1;strokeColor=none;fillColor=none;" vertex="1" parent="1">
                    <mxGeometry x="195" y="620" width="20" height="20" as="geometry"/>
                </mxCell>
                <mxCell id="128" value="2" style="text;html=1;align=center;verticalAlign=middle;resizable=0;points=[];autosize=1;strokeColor=none;fillColor=none;" vertex="1" parent="1">
                    <mxGeometry x="195" y="530" width="20" height="20" as="geometry"/>
                </mxCell>
                <mxCell id="129" style="edgeStyle=orthogonalEdgeStyle;rounded=0;html=1;entryX=0;entryY=0.5;entryDx=0;entryDy=0;" edge="1" parent="1" source="130" target="116">
                    <mxGeometry relative="1" as="geometry">
                        <Array as="points">
                            <mxPoint x="185" y="730"/>
                        </Array>
                    </mxGeometry>
                </mxCell>
                <mxCell id="130" value="" style="shape=waypoint;sketch=0;size=6;pointerEvents=1;points=[];fillColor=none;resizable=0;rotatable=0;perimeter=centerPerimeter;snapToPoint=1;" vertex="1" parent="1">
                    <mxGeometry x="165" y="710" width="40" height="40" as="geometry"/>
                </mxCell>
                <mxCell id="131" value="4" style="text;html=1;align=center;verticalAlign=middle;resizable=0;points=[];autosize=1;strokeColor=none;fillColor=none;" vertex="1" parent="1">
                    <mxGeometry x="195" y="730" width="20" height="20" as="geometry"/>
                </mxCell>
                <mxCell id="132" style="edgeStyle=orthogonalEdgeStyle;rounded=0;html=1;entryX=0;entryY=0.5;entryDx=0;entryDy=0;" edge="1" parent="1" source="133" target="118">
                    <mxGeometry relative="1" as="geometry">
                        <Array as="points">
                            <mxPoint x="405" y="640"/>
                        </Array>
                    </mxGeometry>
                </mxCell>
                <mxCell id="133" value="" style="shape=waypoint;sketch=0;size=6;pointerEvents=1;points=[];fillColor=none;resizable=0;rotatable=0;perimeter=centerPerimeter;snapToPoint=1;" vertex="1" parent="1">
                    <mxGeometry x="165" y="620" width="40" height="40" as="geometry"/>
                </mxCell>
                <mxCell id="134" value="" style="edgeStyle=orthogonalEdgeStyle;rounded=0;html=1;endArrow=none;startArrow=none;" edge="1" parent="1" source="135" target="133">
                    <mxGeometry relative="1" as="geometry">
                        <mxPoint x="170" y="1182" as="targetPoint"/>
                        <mxPoint x="185" y="440" as="sourcePoint"/>
                        <Array as="points"/>
                    </mxGeometry>
                </mxCell>
                <mxCell id="135" value="" style="shape=waypoint;sketch=0;size=6;pointerEvents=1;points=[];fillColor=none;resizable=0;rotatable=0;perimeter=centerPerimeter;snapToPoint=1;" vertex="1" parent="1">
                    <mxGeometry x="165" y="530" width="40" height="40" as="geometry"/>
                </mxCell>
                <mxCell id="136" value="" style="edgeStyle=orthogonalEdgeStyle;rounded=0;html=1;endArrow=none;" edge="1" parent="1" source="110" target="135">
                    <mxGeometry relative="1" as="geometry">
                        <mxPoint x="185" y="695" as="targetPoint"/>
                        <mxPoint x="185" y="440" as="sourcePoint"/>
                        <Array as="points"/>
                    </mxGeometry>
                </mxCell>
                <mxCell id="137" value="" style="shape=waypoint;sketch=0;size=6;pointerEvents=1;points=[];fillColor=none;resizable=0;rotatable=0;perimeter=centerPerimeter;snapToPoint=1;" vertex="1" parent="1">
                    <mxGeometry x="165" y="455" width="40" height="40" as="geometry"/>
                </mxCell>
                <mxCell id="138" style="edgeStyle=orthogonalEdgeStyle;rounded=0;html=1;" edge="1" parent="1" source="139" target="114">
                    <mxGeometry relative="1" as="geometry">
                        <Array as="points">
                            <mxPoint x="185" y="820"/>
                        </Array>
                    </mxGeometry>
                </mxCell>
                <mxCell id="139" value="" style="shape=waypoint;sketch=0;size=6;pointerEvents=1;points=[];fillColor=none;resizable=0;rotatable=0;perimeter=centerPerimeter;snapToPoint=1;" vertex="1" parent="1">
                    <mxGeometry x="165" y="800" width="40" height="40" as="geometry"/>
                </mxCell>
                <mxCell id="140" value="" style="edgeStyle=orthogonalEdgeStyle;rounded=0;html=1;startArrow=none;endArrow=none;" edge="1" parent="1" target="139">
                    <mxGeometry relative="1" as="geometry">
                        <mxPoint x="170" y="1182" as="targetPoint"/>
                        <mxPoint x="180" y="630" as="sourcePoint"/>
                        <Array as="points">
                            <mxPoint x="185" y="810"/>
                            <mxPoint x="185" y="810"/>
                        </Array>
                    </mxGeometry>
                </mxCell>
                <mxCell id="141" value="5" style="text;html=1;align=center;verticalAlign=middle;resizable=0;points=[];autosize=1;strokeColor=none;fillColor=none;" vertex="1" parent="1">
                    <mxGeometry x="195" y="800" width="20" height="20" as="geometry"/>
                </mxCell>
                <mxCell id="143" value="june" style="shape=parallelogram;perimeter=parallelogramPerimeter;whiteSpace=wrap;html=1;fixedSize=1;" vertex="1" parent="1">
                    <mxGeometry x="375" y="860" width="120" height="60" as="geometry"/>
                </mxCell>
                <mxCell id="145" value="july" style="shape=parallelogram;perimeter=parallelogramPerimeter;whiteSpace=wrap;html=1;fixedSize=1;" vertex="1" parent="1">
                    <mxGeometry x="365" y="930" width="120" height="60" as="geometry"/>
                </mxCell>
                <mxCell id="146" style="edgeStyle=orthogonalEdgeStyle;rounded=0;html=1;entryX=0;entryY=0.5;entryDx=0;entryDy=0;" edge="1" parent="1" source="152" target="145">
                    <mxGeometry relative="1" as="geometry">
                        <Array as="points">
                            <mxPoint x="185" y="960"/>
                        </Array>
                    </mxGeometry>
                </mxCell>
                <mxCell id="147" value="7" style="text;html=1;align=center;verticalAlign=middle;resizable=0;points=[];autosize=1;strokeColor=none;fillColor=none;" vertex="1" parent="1">
                    <mxGeometry x="195" y="930" width="20" height="20" as="geometry"/>
                </mxCell>
                <mxCell id="148" style="edgeStyle=orthogonalEdgeStyle;rounded=0;html=1;entryX=0;entryY=0.5;entryDx=0;entryDy=0;" edge="1" parent="1" source="149" target="143">
                    <mxGeometry relative="1" as="geometry">
                        <Array as="points">
                            <mxPoint x="185" y="890"/>
                        </Array>
                    </mxGeometry>
                </mxCell>
                <mxCell id="149" value="" style="shape=waypoint;sketch=0;size=6;pointerEvents=1;points=[];fillColor=none;resizable=0;rotatable=0;perimeter=centerPerimeter;snapToPoint=1;" vertex="1" parent="1">
                    <mxGeometry x="165" y="870" width="40" height="40" as="geometry"/>
                </mxCell>
                <mxCell id="150" value="" style="edgeStyle=orthogonalEdgeStyle;rounded=0;html=1;startArrow=none;endArrow=none;" edge="1" parent="1" source="139" target="149">
                    <mxGeometry relative="1" as="geometry">
                        <mxPoint x="185" y="1290" as="targetPoint"/>
                        <mxPoint x="185" y="930" as="sourcePoint"/>
                        <Array as="points"/>
                    </mxGeometry>
                </mxCell>
                <mxCell id="151" style="edgeStyle=orthogonalEdgeStyle;rounded=0;html=1;" edge="1" parent="1" source="152" target="156">
                    <mxGeometry relative="1" as="geometry"/>
                </mxCell>
                <mxCell id="152" value="" style="shape=waypoint;sketch=0;size=6;pointerEvents=1;points=[];fillColor=none;resizable=0;rotatable=0;perimeter=centerPerimeter;snapToPoint=1;" vertex="1" parent="1">
                    <mxGeometry x="165" y="1020" width="40" height="40" as="geometry"/>
                </mxCell>
                <mxCell id="153" value="" style="edgeStyle=orthogonalEdgeStyle;rounded=0;html=1;startArrow=none;endArrow=none;" edge="1" parent="1" source="149" target="152">
                    <mxGeometry relative="1" as="geometry">
                        <mxPoint x="185" y="1290" as="targetPoint"/>
                        <mxPoint x="185" y="1030" as="sourcePoint"/>
                        <Array as="points"/>
                    </mxGeometry>
                </mxCell>
                <mxCell id="154" value="6" style="text;html=1;align=center;verticalAlign=middle;resizable=0;points=[];autosize=1;strokeColor=none;fillColor=none;" vertex="1" parent="1">
                    <mxGeometry x="195" y="860" width="20" height="20" as="geometry"/>
                </mxCell>
                <mxCell id="156" value="august" style="shape=parallelogram;perimeter=parallelogramPerimeter;whiteSpace=wrap;html=1;fixedSize=1;" vertex="1" parent="1">
                    <mxGeometry x="365" y="1010" width="120" height="60" as="geometry"/>
                </mxCell>
                <mxCell id="157" value="8" style="text;html=1;align=center;verticalAlign=middle;resizable=0;points=[];autosize=1;strokeColor=none;fillColor=none;" vertex="1" parent="1">
                    <mxGeometry x="195" y="1020" width="20" height="20" as="geometry"/>
                </mxCell>
                <mxCell id="161" style="edgeStyle=orthogonalEdgeStyle;rounded=0;html=1;" edge="1" parent="1" source="160" target="109">
                    <mxGeometry relative="1" as="geometry"/>
                </mxCell>
                <mxCell id="176" style="edgeStyle=orthogonalEdgeStyle;rounded=0;html=1;" edge="1" parent="1" source="160">
                    <mxGeometry relative="1" as="geometry">
                        <mxPoint x="230" y="1139" as="targetPoint"/>
                        <Array as="points">
                            <mxPoint x="780" y="90"/>
                            <mxPoint x="780" y="1150"/>
                            <mxPoint x="230" y="1150"/>
                        </Array>
                    </mxGeometry>
                </mxCell>
                <mxCell id="160" value="Start" style="strokeWidth=2;html=1;shape=mxgraph.flowchart.start_1;whiteSpace=wrap;" vertex="1" parent="1">
                    <mxGeometry x="125" y="60" width="100" height="60" as="geometry"/>
                </mxCell>
                <mxCell id="168" style="edgeStyle=orthogonalEdgeStyle;rounded=0;html=1;" edge="1" parent="1" source="169" target="170">
                    <mxGeometry relative="1" as="geometry">
                        <Array as="points">
                            <mxPoint x="195" y="1100"/>
                            <mxPoint x="435" y="1100"/>
                        </Array>
                    </mxGeometry>
                </mxCell>
                <mxCell id="170" value="....." style="shape=parallelogram;perimeter=parallelogramPerimeter;whiteSpace=wrap;html=1;fixedSize=1;" vertex="1" parent="1">
                    <mxGeometry x="350" y="1080" width="120" height="60" as="geometry"/>
                </mxCell>
                <mxCell id="171" value="8" style="text;html=1;align=center;verticalAlign=middle;resizable=0;points=[];autosize=1;strokeColor=none;fillColor=none;" vertex="1" parent="1">
                    <mxGeometry x="205" y="1030" width="20" height="20" as="geometry"/>
                </mxCell>
                <mxCell id="169" value="" style="shape=waypoint;sketch=0;size=6;pointerEvents=1;points=[];fillColor=none;resizable=0;rotatable=0;perimeter=centerPerimeter;snapToPoint=1;" vertex="1" parent="1">
                    <mxGeometry x="165" y="1080" width="40" height="40" as="geometry"/>
                </mxCell>
                <mxCell id="172" value="" style="edgeStyle=orthogonalEdgeStyle;rounded=0;html=1;entryDx=0;entryDy=0;endArrow=none;" edge="1" parent="1" source="152" target="169">
                    <mxGeometry relative="1" as="geometry">
                        <mxPoint x="185" y="1040" as="sourcePoint"/>
                        <mxPoint x="225" y="1100" as="targetPoint"/>
                        <Array as="points"/>
                    </mxGeometry>
                </mxCell>
                <mxCell id="173" value="stop" style="shape=ellipse;html=1;dashed=0;whitespace=wrap;aspect=fixed;strokeWidth=5;perimeter=ellipsePerimeter;" vertex="1" parent="1">
                    <mxGeometry x="165" y="1109" width="60" height="60" as="geometry"/>
                </mxCell>
            </root>
        </mxGraphModel>
    </diagram>
</mxfile>